<?xml version="1.0" standalone="no"?>
<!DOCTYPE svg PUBLIC "-//W3C//DTD SVG 20010904//EN"
 "http://www.w3.org/TR/2001/REC-SVG-20010904/DTD/svg10.dtd">
<svg version="1.0" xmlns="http://www.w3.org/2000/svg"
 width="2000.000000pt" height="2000.000000pt" viewBox="0 0 2000.000000 2000.000000"
 preserveAspectRatio="xMidYMid meet">

<g transform="translate(0.000000,2000.000000) scale(0.100000,-0.100000)"
fill="#000000" stroke="none">
<path d="M9585 19119 c-148 -4 -299 -12 -335 -18 -36 -6 -198 -22 -360 -36
-162 -14 -304 -30 -315 -35 -11 -5 -105 -20 -210 -35 -104 -14 -197 -30 -206
-34 -9 -5 -87 -21 -175 -36 -87 -15 -164 -31 -169 -36 -6 -4 -58 -17 -115 -29
-58 -11 -112 -24 -121 -29 -8 -5 -71 -21 -140 -36 -68 -15 -129 -31 -134 -36
-6 -4 -60 -20 -120 -34 -61 -15 -119 -31 -129 -37 -10 -5 -53 -21 -95 -34 -85
-26 -250 -84 -296 -103 -16 -7 -59 -22 -94 -33 -36 -11 -74 -26 -85 -33 -12
-7 -52 -23 -91 -35 -38 -13 -75 -26 -80 -31 -6 -4 -35 -17 -65 -29 -30 -12
-77 -32 -105 -44 -27 -13 -68 -29 -90 -36 -22 -7 -47 -18 -55 -25 -8 -6 -42
-22 -75 -34 -33 -13 -67 -27 -75 -32 -8 -5 -35 -18 -60 -29 -25 -11 -52 -25
-60 -30 -8 -6 -30 -17 -47 -25 -59 -27 -98 -46 -132 -65 -19 -11 -51 -26 -70
-35 -20 -9 -61 -31 -91 -50 -30 -19 -82 -48 -115 -65 -33 -17 -89 -49 -125
-70 -36 -21 -90 -53 -120 -70 -30 -17 -74 -43 -96 -58 -23 -15 -64 -40 -90
-56 -27 -16 -60 -36 -73 -45 -57 -39 -110 -73 -156 -101 -43 -27 -106 -71
-295 -205 -19 -14 -55 -41 -80 -60 -25 -19 -65 -49 -90 -67 -25 -17 -59 -43
-76 -57 -17 -14 -49 -39 -69 -56 -21 -16 -69 -56 -106 -87 -37 -32 -83 -68
-103 -82 -20 -13 -44 -33 -54 -44 -9 -10 -71 -66 -137 -122 -200 -173 -494
-460 -681 -665 -50 -55 -104 -114 -120 -131 -41 -44 -201 -233 -319 -379 -14
-16 -38 -46 -54 -65 -16 -19 -54 -69 -85 -110 -30 -41 -61 -82 -68 -90 -7 -8
-25 -32 -40 -55 -15 -22 -42 -61 -60 -87 -18 -26 -73 -107 -122 -180 -49 -73
-97 -144 -107 -158 -10 -14 -28 -43 -40 -65 -12 -22 -29 -48 -38 -58 -15 -18
-36 -52 -101 -167 -17 -30 -46 -80 -65 -110 -19 -30 -49 -82 -67 -114 -85
-152 -107 -194 -127 -236 -12 -24 -27 -51 -34 -60 -7 -8 -24 -42 -36 -75 -13
-33 -29 -67 -36 -75 -7 -8 -20 -35 -29 -60 -10 -25 -25 -59 -35 -76 -10 -17
-28 -57 -40 -90 -12 -32 -29 -69 -37 -81 -8 -12 -21 -44 -30 -70 -9 -26 -22
-55 -29 -63 -7 -8 -23 -46 -35 -85 -12 -38 -28 -77 -34 -85 -7 -8 -22 -49 -35
-90 -13 -41 -29 -82 -35 -90 -7 -8 -18 -35 -25 -60 -7 -25 -21 -63 -31 -85
-10 -22 -30 -79 -43 -126 -14 -47 -30 -94 -36 -105 -6 -10 -20 -57 -32 -104
-11 -47 -27 -98 -34 -115 -7 -16 -25 -82 -41 -145 -15 -63 -31 -122 -35 -130
-5 -8 -18 -59 -29 -113 -11 -54 -25 -105 -30 -115 -5 -9 -21 -81 -35 -160 -14
-78 -29 -150 -35 -160 -5 -9 -21 -98 -35 -197 -14 -99 -30 -189 -35 -200 -5
-11 -18 -121 -30 -245 -12 -124 -27 -272 -35 -330 -35 -259 -43 -989 -15
-1375 13 -185 69 -708 79 -740 5 -16 21 -109 36 -205 14 -96 30 -182 34 -191
5 -9 21 -81 35 -160 15 -79 31 -152 37 -162 5 -10 19 -64 30 -120 11 -56 26
-115 34 -132 7 -16 23 -75 35 -130 12 -55 26 -105 30 -110 5 -6 20 -57 35
-115 14 -58 32 -116 39 -130 8 -14 24 -61 36 -105 12 -43 28 -88 35 -100 7
-11 20 -45 29 -75 10 -30 23 -66 30 -80 7 -14 24 -56 36 -94 13 -39 31 -84 40
-100 10 -17 26 -56 35 -86 10 -30 24 -64 31 -75 7 -11 20 -41 29 -65 8 -25 26
-65 39 -90 13 -25 29 -63 36 -85 7 -22 18 -47 26 -55 7 -9 23 -42 35 -75 12
-33 28 -67 35 -75 6 -8 22 -40 35 -70 12 -30 28 -62 34 -70 7 -8 24 -40 39
-70 14 -30 42 -82 60 -115 19 -33 46 -83 59 -111 14 -28 36 -66 49 -86 12 -20
32 -51 43 -69 18 -32 56 -95 100 -168 11 -18 38 -61 59 -95 22 -33 49 -77 62
-96 55 -87 112 -173 166 -251 91 -131 109 -156 137 -194 17 -22 43 -58 58 -80
15 -22 53 -70 83 -107 30 -37 87 -106 125 -154 115 -143 144 -178 170 -206 14
-15 60 -67 102 -115 153 -177 546 -577 683 -697 47 -41 99 -87 115 -104 17
-16 68 -62 115 -101 47 -40 96 -83 110 -95 14 -12 43 -35 65 -51 21 -17 47
-37 56 -45 9 -8 40 -33 69 -55 29 -22 65 -51 81 -65 28 -25 41 -35 199 -152
105 -77 184 -132 296 -205 27 -17 63 -41 79 -52 80 -57 104 -72 150 -97 27
-14 60 -34 75 -44 78 -53 156 -101 264 -162 32 -18 84 -47 115 -65 31 -17 81
-44 111 -59 30 -15 60 -33 65 -39 6 -7 35 -22 65 -35 30 -12 62 -28 70 -34 8
-7 40 -23 70 -35 30 -13 62 -29 70 -36 8 -7 36 -20 62 -30 26 -10 53 -24 59
-31 6 -8 17 -14 24 -14 17 0 117 -41 135 -55 8 -7 33 -18 55 -25 22 -7 63 -23
90 -36 28 -12 75 -32 105 -44 30 -12 59 -25 65 -29 5 -5 42 -18 80 -31 39 -12
79 -28 90 -35 11 -6 52 -22 90 -35 39 -12 79 -28 90 -34 11 -7 56 -23 100 -35
44 -13 89 -29 100 -35 11 -7 52 -21 90 -31 39 -10 81 -24 95 -31 14 -8 71 -25
128 -39 57 -14 111 -30 120 -35 9 -5 71 -21 137 -36 66 -14 125 -30 130 -34 6
-4 53 -15 105 -25 52 -10 109 -23 125 -30 17 -8 97 -25 178 -39 81 -15 156
-31 165 -36 9 -5 100 -21 202 -35 102 -14 194 -30 205 -35 11 -5 126 -18 255
-30 129 -11 271 -25 315 -31 358 -45 1311 -45 1655 0 41 5 183 19 315 31 132
12 249 25 260 30 11 5 103 21 205 35 102 14 192 30 202 35 9 5 83 21 165 35
81 14 162 32 178 39 17 8 73 21 125 31 52 10 100 21 105 25 6 4 64 20 130 34
66 15 128 31 137 36 9 5 63 21 120 35 57 14 114 31 128 39 14 7 57 21 95 31
39 10 79 24 90 31 11 6 56 22 100 35 44 12 89 28 100 35 11 6 52 22 90 34 39
13 79 29 90 35 11 7 52 23 90 35 39 13 75 26 80 31 6 4 35 17 65 29 30 12 78
32 105 44 28 13 68 29 90 36 22 7 47 18 55 25 18 14 118 55 135 55 7 0 18 6
24 14 6 7 33 21 59 31 26 10 54 23 62 30 8 7 40 23 70 36 30 12 62 28 70 35 8
6 40 22 70 34 30 13 60 29 65 35 6 7 35 23 65 35 30 13 60 29 66 36 6 7 31 23
55 34 24 11 73 38 109 60 36 21 88 51 115 66 28 14 58 33 68 42 21 19 72 50
142 88 28 15 61 35 75 46 43 33 93 66 133 88 21 12 58 35 82 53 24 18 58 42
77 55 35 23 222 160 296 215 24 18 56 43 71 57 16 14 52 43 81 65 29 22 60 47
69 55 9 8 35 28 56 45 22 16 51 39 65 51 14 12 63 55 110 94 252 214 700 657
920 910 41 47 84 96 97 110 24 26 49 57 173 210 41 51 98 120 126 154 28 34
56 71 62 83 6 11 26 39 44 61 69 87 84 106 103 137 11 18 38 58 60 90 22 31
51 74 65 95 14 21 32 48 41 61 24 35 147 229 184 290 33 54 79 132 100 167 11
19 35 57 53 85 17 28 32 56 32 62 0 6 11 26 24 46 14 20 50 85 80 144 31 59
60 113 64 119 5 6 19 36 31 66 13 30 29 62 35 70 7 8 23 42 35 75 12 33 28 66
35 75 8 8 19 33 26 55 7 22 18 49 25 60 7 11 12 23 11 26 -1 3 4 12 10 20 6 8
17 32 24 54 7 22 20 54 30 71 9 17 25 55 35 85 9 30 25 68 35 85 9 16 27 61
40 100 12 38 28 78 35 89 7 11 20 47 29 80 10 33 23 69 31 80 7 12 23 57 35
100 12 44 28 91 36 105 7 14 25 72 39 130 15 58 30 109 35 115 4 5 18 55 30
110 12 55 28 114 35 130 8 17 21 68 30 115 9 47 23 99 30 115 7 17 25 98 40
180 16 83 32 157 36 165 5 8 20 94 34 190 14 96 30 184 35 195 5 11 18 121 30
245 11 124 27 272 35 330 17 126 35 527 35 782 0 252 -17 629 -35 768 -8 63
-24 214 -35 335 -12 121 -25 229 -30 240 -4 11 -20 101 -35 200 -14 99 -30
188 -35 197 -5 9 -21 81 -35 160 -14 79 -30 152 -36 164 -6 11 -21 67 -34 125
-31 133 -89 346 -103 382 -7 15 -21 65 -32 110 -12 45 -27 96 -35 112 -7 17
-23 64 -35 105 -12 41 -30 93 -40 115 -10 22 -24 60 -31 85 -7 25 -18 52 -24
60 -6 8 -22 49 -35 90 -14 41 -30 82 -36 90 -6 8 -22 47 -34 85 -12 39 -28 77
-35 85 -7 8 -18 33 -25 55 -7 22 -18 50 -26 62 -8 12 -23 46 -35 75 -11 29
-33 78 -48 108 -15 30 -34 71 -41 90 -7 19 -19 42 -25 50 -7 8 -23 42 -36 75
-12 33 -28 67 -35 75 -7 8 -24 38 -38 65 -14 28 -39 77 -56 110 -17 33 -49 89
-70 125 -21 36 -53 90 -70 120 -17 30 -46 80 -65 110 -19 30 -43 71 -53 90
-24 43 -85 136 -110 170 -11 14 -31 48 -45 77 -15 28 -30 53 -34 55 -4 1 -35
43 -68 91 -33 49 -75 110 -93 135 -17 26 -44 65 -60 87 -15 23 -33 47 -40 55
-7 8 -38 49 -68 90 -31 41 -69 91 -85 110 -16 19 -40 49 -54 65 -118 146 -278
335 -319 379 -16 17 -70 76 -120 131 -187 206 -475 487 -686 670 -69 60 -135
119 -147 132 -12 13 -26 23 -30 23 -5 0 -21 12 -37 26 -15 15 -56 49 -90 76
-33 27 -70 56 -81 66 -29 25 -176 137 -245 187 -19 14 -55 41 -80 60 -76 58
-307 215 -390 265 -19 11 -49 31 -66 43 -18 12 -47 31 -65 42 -18 11 -55 34
-83 52 -28 18 -76 46 -106 63 -30 17 -84 49 -120 70 -36 22 -78 46 -95 54 -38
18 -180 100 -197 113 -7 5 -38 20 -68 32 -30 13 -62 29 -70 36 -8 8 -40 23
-70 35 -30 12 -62 27 -70 34 -8 7 -35 21 -60 30 -25 10 -52 23 -60 30 -8 7
-44 23 -80 36 -36 12 -72 28 -80 35 -8 7 -33 18 -55 25 -22 7 -62 23 -90 36
-27 12 -75 32 -105 44 -30 12 -59 25 -65 29 -5 5 -41 18 -80 31 -38 12 -79 28
-91 35 -11 7 -49 22 -85 33 -35 11 -77 26 -94 33 -46 19 -211 77 -296 103 -42
13 -85 29 -95 34 -10 6 -68 22 -129 37 -60 14 -114 30 -120 34 -5 5 -57 19
-115 31 -58 12 -118 28 -135 35 -16 7 -79 23 -140 35 -60 12 -114 26 -120 30
-5 4 -82 20 -170 35 -88 15 -164 30 -170 35 -5 4 -98 20 -205 34 -107 15 -204
31 -215 36 -11 5 -101 16 -200 25 -99 9 -247 23 -330 31 -327 33 -747 45
-1180 33z m-804 -4266 c4 -33 3 -3363 -2 -3363 -3 0 -26 28 -51 63 -25 34
-126 172 -224 307 -99 135 -242 331 -319 435 -76 105 -198 271 -270 370 -72
99 -207 284 -300 410 -92 127 -194 266 -226 310 -32 44 -111 153 -176 241 -65
89 -187 255 -270 370 -306 419 -418 572 -510 696 -51 70 -96 134 -99 142 -5
14 101 16 1032 18 572 2 1123 4 1227 6 103 1 187 -1 188 -5z m-2320 -1380 c78
-109 168 -232 199 -273 50 -67 112 -152 435 -595 422 -579 694 -951 775 -1060
36 -49 131 -179 211 -288 244 -336 479 -658 593 -813 l110 -149 0 -1660 1
-1660 1190 -1 c655 -1 1201 -2 1215 -3 17 -1 34 -14 55 -44 16 -23 59 -82 95
-132 37 -49 139 -189 227 -310 88 -121 236 -323 328 -450 93 -126 272 -372
398 -545 127 -173 263 -360 303 -415 40 -55 126 -172 190 -260 64 -88 141
-192 170 -231 30 -39 54 -74 54 -78 0 -3 -1507 -6 -3350 -6 l-3350 0 0 4585
c0 2522 2 4585 4 4585 2 0 68 -89 147 -197z m7300 -6668 c3 -94 9 -604 13
-1135 4 -531 10 -980 13 -997 7 -46 -8 -41 -46 15 -17 26 -68 97 -114 159 -45
61 -122 167 -171 235 -49 68 -120 164 -156 213 -37 50 -127 173 -201 274 -183
251 -539 738 -610 836 -32 44 -100 136 -150 205 -180 245 -251 343 -255 354
-3 8 235 11 833 11 l838 -1 6 -169z"/>
</g>
</svg>
